<svg id="Layer_1" data-name="Layer 1" xmlns="http://www.w3.org/2000/svg" viewBox="0 0 760.67 424"><defs><style>.cls-1{fill:#fff;}.cls-2{fill:#db0011;}</style></defs><title>HSBC_MASTERBRAND_SC_LOGO_V2_RGB</title><rect class="cls-1" x="212.53" y="141.55" width="141.73" height="141.73"/><polygon class="cls-2" points="354.26 141.55 354.26 283.28 425.12 212.41 354.26 141.55"/><polygon class="cls-2" points="212.53 141.55 283.39 212.41 354.26 141.55 212.53 141.55"/><polygon class="cls-2" points="212.53 141.55 141.67 212.41 212.53 283.28 212.53 141.55"/><polygon class="cls-2" points="212.53 283.28 354.26 283.28 283.39 212.41 212.53 283.28"/><path d="M446.35,199.95l6.09-7.13A87.46,87.46,0,0,1,468.11,206l-6.79,7.13A90,90,0,0,0,446.35,199.95Zm15.31,17.31L470.8,222a148,148,0,0,1-14.62,29.23l-9.14-5.83A94.32,94.32,0,0,0,461.67,217.26Zm-13-37.76,6.53-6.79a98.94,98.94,0,0,1,14.88,11.57l-6.79,7.48A80.39,80.39,0,0,0,448.7,179.5Zm75.78,4.44H485.07v56.46h40.11v8.79H475.59v-74h48.9Z"/><path d="M534.39,223.7h33.93V212.13h-26.1v-8.79h26.1V191.77H537.09V182.9h31.23V172.72h9.92V182.9h31.23v8.87H578.24v11.57h26.1v8.79h-26.1V223.7h33.93v8.87H578.24v18.71h-9.92V232.58H534.39Z"/></svg>